<?xml version="1.0" encoding="UTF-8"?>
<svg id="Layer_1" data-name="Layer 1" xmlns="http://www.w3.org/2000/svg" width="24" height="24" xmlns:xlink="http://www.w3.org/1999/xlink" version="1.1" viewBox="0 0 24 24">
  <defs>
    <style>
      .cls-1 {
        fill: url(#linear-gradient);
        stroke-width: 0px;
      }
    </style>
    <linearGradient id="linear-gradient" x1="5.95281" y1="14.80712" x2="21.44376" y2="5.96158" gradientUnits="userSpaceOnUse">
      <stop offset="0" stop-color="#aa5cc3"/>
      <stop offset="1" stop-color="#00a4dc"/>
    </linearGradient>
  </defs>
  <path class="cls-1" d="M8.76941,9.62274c.09143-.1828.51813-.33521,1.09717-.45715.33527-.06097.60956-.36572.60956-.76196l.30475-6.36975c0-.54858.06097-1.00574,1.0058-1.00574h.42664c.91437,0,1.0058.45715,1.0058,1.00574l.27429,6.36975c0,.36572.21332.67053.60956.76196.54858.06091.97528.27435,1.09717.45715.4267.85339-2.34674,5.85168-3.20013,5.85168h-.03046c-.85339,0-3.62683-4.99829-3.20013-5.85168ZM21.63086,5.32544c-.42664-.88385-2.80389-1.49341-5.76019-1.73724-.30481-.03046-.5791.21338-.5791.51819v1.9505c0,.24384.21332.48767.45715.51813,1.31055.21332,2.3468.51807,2.59058.97522.85339,1.67627-4.63257,11.55103-6.30884,11.55103S4.86829,9.19611,5.72162,7.55023c.21338-.39612,1.24957-.73138,2.52966-.9447.27429-.03052.45715-.24384.45715-.51813v-1.95062c0-.30475-.27429-.51807-.5791-.51807-2.92578.24384-5.30304.82288-5.76019,1.73718-1.24957,2.52966,7.04028,17.61597,9.63086,17.61597v-.03046c2.59058,0,10.88043-15.05585,9.63086-17.61597Z"/>
</svg>